<?xml version="1.0" encoding="UTF-8"?>
<svg id="Layer_1" data-name="Layer 1" xmlns="http://www.w3.org/2000/svg" version="1.1" viewBox="0 0 216.9 80.5">
  <defs>
    <style>
      .cls-1 {
        fill: #fff;
        stroke-width: 0px;
      }
    </style>
  </defs>
  <path class="cls-1" d="M18.8,51.7c-5,0-9-1.4-11.9-4.1-2.9-2.8-4.3-6.5-4.3-11.1s1.3-8.4,3.9-11.2,6.2-4.2,10.7-4.2,7.9,1.5,10,4.5,3.2,6.6,3.2,10.7v2.4H10.8c.4,1.9,1.2,3.5,2.6,4.6,1.4,1.1,3.2,1.7,5.5,1.7s2.5-.2,3.6-.5,2.3-.8,3.7-1.5l2.3,5.6c-1.4,1-3,1.8-4.9,2.3-1.9.5-3.5.7-4.8.7ZM23,33.5c-.4-2-1.1-3.4-2.2-4.4-1-.9-2.3-1.4-3.9-1.4s-2.9.5-4,1.5-1.8,2.4-2.1,4.3h12.2Z"/>
  <path class="cls-1" d="M42.8,25c1.3-1.3,3-2.4,5-3.1,2-.8,3.8-1.1,5.3-1.1,4,0,6.8,1.2,8.4,3.5s2.5,5.2,2.5,8.5v18.2h-7.8v-17.9c0-1.8-.4-3.2-1.3-4.2s-2.2-1.5-3.8-1.5-2.3.3-3.5.9c-1.2.6-2.3,1.2-3.3,2v20.7h-7.8v-29.1h4.1s2.3,3.1,2.3,3.1Z"/>
  <path class="cls-1" d="M98.9,8.6v42.4h-4.1l-2.2-2.8c-1.3,1.1-2.9,2-4.7,2.6s-3.4.9-4.8.9c-4.2,0-7.5-1.5-9.8-4.4s-3.4-6.6-3.4-11,1.2-8.1,3.6-11c2.4-3,5.7-4.4,9.9-4.4s2.3.2,3.7.6,2.6.9,3.8,1.6v-13.6s7.9-.7,7.9-.7ZM85.3,27.4c-2.7,0-4.6,1-5.7,2.9-1.1,1.9-1.6,3.9-1.6,5.9s.5,4.3,1.4,6.1,2.9,2.7,5.8,2.7,1.9-.2,2.9-.6c1-.4,2-.9,2.8-1.5v-13.4c-.9-.6-1.8-1.1-2.8-1.5s-2-.6-2.9-.6Z"/>
  <path class="cls-1" d="M116.4,51.7c-3.6,0-6.2-.9-7.9-2.6s-2.6-4-2.6-6.8,1-5.3,3.1-6.9c2-1.6,4.7-2.4,8-2.4h5.7c0-1.5-.5-2.6-1.3-3.5s-1.9-1.2-3.4-1.2-2.8.2-4.4.6c-1.6.4-2.9.8-4,1.4l-2.1-6.5c1.1-.8,2.8-1.4,5.1-1.9,2.3-.5,4.1-.8,5.3-.8,3.5,0,6.5,1,8.9,3,2.5,2,3.7,4.6,3.7,7.7v19.1h-4l-1.9-2.5c-1.1.8-2.3,1.6-3.8,2.2s-2.9,1-4.4,1ZM112.6,42.3c0,.8.3,1.6,1,2.2s1.6,1,2.7,1,2.2-.2,3.3-.7,2.2-1.2,3.2-2.2v-4.4h-5.9c-1.4,0-2.4.4-3.2,1.3s-1.1,1.8-1.1,2.8Z"/>
  <path class="cls-1" d="M155.7,50.4c-.6.5-1.6,1-2.7,1.3s-2.2.5-3.1.5c-3.6,0-6.4-.9-8.5-2.7-2.1-1.8-3.1-4.4-3.1-7.8v-13.7h-3.9v-6h3.9v-6.9l7.7-1.4v8.3h5.3l2.4,6h-7.7v12.4c0,1.5.4,2.8,1.1,3.8s1.8,1.5,3.2,1.5,1,0,1.6-.2,1.1-.3,1.6-.6l2.3,5.6Z"/>
  <path class="cls-1" d="M163.9,9c1.2,0,2.3.4,3.1,1.3s1.3,1.9,1.3,3.1-.4,2.3-1.3,3.1-1.9,1.3-3.1,1.3-2.2-.4-3.1-1.3-1.3-1.9-1.3-3.1.4-2.3,1.3-3.1,1.9-1.3,3.1-1.3ZM167.8,21.9v29.1h-7.8v-29.1h7.8Z"/>
  <path class="cls-1" d="M172,51l11-14.8-10-13.2,8-1.1,7,9.4,7.3-9.4h8.5l-11.2,15.5,10.3,13.6h-8.6l-6.7-8.7-6.9,8.7s-8.6,0-8.6,0Z"/>
</svg>