<?xml version="1.0" encoding="UTF-8"?>
<svg id="Layer_1" xmlns="http://www.w3.org/2000/svg" viewBox="0 0 500 500">
  <defs>
    <style>
      .cls-1 {
        fill: #fff;
      }

      .cls-2 {
        fill: #06f;
      }
    </style>
  </defs>
  <rect class="cls-2" x="-1" y="-2" width="503" height="503"/>
  <g>
    <path class="cls-1" d="M52.79,262.67c.52,8.19,8.71,12.09,17.94,12.09,6.76,0,12.22-.91,17.55-2.73l2.6,13.39c-6.5,2.73-14.43,4.03-23.01,4.03-21.58,0-33.93-12.48-33.93-32.37,0-16.12,10.01-33.93,32.11-33.93,20.54,0,28.34,15.99,28.34,31.72,0,3.38-.39,6.37-.65,7.8h-40.95ZM76.06,249.15c0-4.81-2.08-12.87-11.18-12.87-8.32,0-11.7,7.67-12.22,12.87h23.4Z"/>
    <path class="cls-1" d="M106.22,244.86c0-7.93-.26-14.56-.52-20.28h17.16l.91,8.84h.39c2.6-4.16,8.97-10.27,19.63-10.27,13,0,22.75,8.71,22.75,27.43v37.57h-19.76v-35.23c0-8.19-2.86-13.78-10.01-13.78-5.46,0-8.71,3.77-10.14,7.41-.52,1.3-.65,3.12-.65,4.94v36.66h-19.76v-43.29Z"/>
    <path class="cls-1" d="M244.02,195.85v73.32c0,7.15.26,14.69.52,18.98h-17.55l-.78-9.23h-.39c-3.9,7.02-11.7,10.66-19.89,10.66-15.08,0-27.17-12.87-27.17-32.63-.13-21.45,13.26-33.93,28.47-33.93,7.93,0,13.91,2.86,16.77,7.15h.26v-34.32h19.76ZM224.26,251.49c0-1.04,0-2.47-.26-3.64-1.17-5.2-5.46-9.62-11.57-9.62-9.1,0-13.65,8.06-13.65,18.07,0,10.79,5.33,17.55,13.52,17.55,5.72,0,10.4-3.9,11.57-9.49.26-1.43.39-2.99.39-4.55v-8.32Z"/>
    <path class="cls-1" d="M312.79,272.81c0,5.98.26,11.83,1.04,15.34h-17.81l-1.17-6.37h-.39c-4.16,5.07-10.66,7.8-18.2,7.8-12.87,0-20.54-9.36-20.54-19.5,0-16.51,14.82-24.31,37.31-24.31v-.78c0-3.51-1.82-8.32-11.57-8.32-6.5,0-13.39,2.21-17.55,4.81l-3.64-12.74c4.42-2.47,13.13-5.72,24.7-5.72,21.19,0,27.82,12.48,27.82,27.56v22.23ZM293.68,258.12c-10.4,0-18.46,2.47-18.46,10.01,0,5.07,3.38,7.54,7.8,7.54,4.81,0,8.97-3.25,10.27-7.28.26-1.04.39-2.21.39-3.38v-6.89Z"/>
    <path class="cls-1" d="M349.58,207.42v17.16h14.17v14.56h-14.17v23.01c0,7.67,1.95,11.18,7.8,11.18,2.73,0,4.03-.13,5.85-.52l.13,14.95c-2.47.91-7.28,1.69-12.74,1.69-6.37,0-11.7-2.21-14.95-5.46-3.64-3.77-5.46-9.88-5.46-18.85v-26h-8.45v-14.56h8.45v-11.83l19.37-5.33Z"/>
    <path class="cls-1" d="M395.6,206.9c0,5.46-4.03,9.88-10.66,9.88-6.24,0-10.27-4.42-10.27-9.88s4.16-9.88,10.53-9.88,10.27,4.29,10.4,9.88ZM375.19,288.16v-63.57h19.76v63.57h-19.76Z"/>
    <path class="cls-1" d="M425.89,224.58l6.24,10.66c1.82,3.25,3.51,6.37,5.2,9.49h.26c1.69-3.51,3.25-6.63,4.94-9.75l5.59-10.4h21.45l-20.93,30.29,21.19,33.28h-22.36l-6.37-11.44c-1.82-3.12-3.38-6.37-4.94-9.62h-.39c-1.56,3.38-3.25,6.5-4.81,9.62l-5.98,11.44h-21.71l21.58-32.37-21.06-31.2h22.1Z"/>
  </g>
</svg>