<svg width="3778" height="706" viewBox="0 0 3778 706" fill="none" xmlns="http://www.w3.org/2000/svg">
<path d="M1151.96 625.801C1080.98 625.801 1024.2 605.928 983.038 567.602C941.873 527.856 922 475.335 922 410.038C922 344.742 940.453 290.801 977.36 251.055C1014.27 211.309 1065.37 191.437 1129.25 191.437C1193.12 191.437 1241.39 212.729 1271.2 255.314C1301 297.898 1316.62 349 1316.62 407.199V441.267H1038.4C1044.08 468.238 1055.43 490.949 1075.31 506.564C1095.18 522.178 1120.73 530.695 1153.38 530.695C1186.03 530.695 1188.86 527.856 1204.48 523.598C1220.09 519.339 1237.13 512.242 1257 502.305L1289.65 581.797C1269.78 595.992 1247.06 607.348 1220.09 614.445C1193.12 621.543 1170.41 624.382 1151.96 624.382V625.801ZM1211.58 367.454C1205.9 339.064 1195.96 319.191 1180.35 304.996C1166.15 292.221 1147.7 285.123 1124.99 285.123C1102.28 285.123 1083.82 292.221 1068.21 306.415C1052.59 320.61 1042.66 340.483 1038.4 367.454H1211.58Z" fill="#0054D1"/>
<path d="M1492.62 246.796C1511.07 228.343 1535.2 212.728 1563.59 202.792C1591.98 191.436 1617.53 187.177 1638.82 187.177C1695.6 187.177 1735.35 204.211 1758.06 236.859C1780.77 269.508 1793.55 310.673 1793.55 357.516V615.864H1682.83V361.775C1682.83 336.224 1677.15 316.351 1664.37 302.156C1651.6 287.961 1633.15 280.864 1610.43 280.864C1587.72 280.864 1577.79 285.122 1560.75 293.639C1543.72 302.156 1528.1 310.673 1513.91 322.029V615.864H1403.19V202.792H1461.39L1494.04 246.796H1492.62Z" fill="#0054D1"/>
<path d="M2288.93 14V615.865H2230.73L2199.5 576.119C2181.04 591.734 2158.33 604.509 2132.78 613.026C2107.23 621.543 2084.52 625.801 2064.65 625.801C2005.03 625.801 1958.18 604.509 1925.54 563.344C1892.89 522.178 1877.27 469.657 1877.27 407.199C1877.27 344.742 1894.31 292.221 1928.38 251.055C1962.44 208.47 2009.29 188.598 2068.9 188.598C2128.52 188.598 2101.55 191.437 2121.43 197.115C2141.3 202.793 2158.33 209.89 2175.37 219.826V26.7754L2287.51 16.839L2288.93 14ZM2095.88 280.865C2057.55 280.865 2030.58 295.06 2014.96 322.03C1999.35 349 1992.25 377.39 1992.25 405.78C1992.25 434.17 1999.35 466.818 2012.13 492.369C2024.9 517.92 2053.29 530.695 2094.46 530.695C2135.62 530.695 2121.43 527.856 2135.62 522.178C2149.82 516.501 2164.01 509.403 2175.37 500.886V310.674C2162.59 302.157 2149.82 295.06 2135.62 289.382C2121.43 283.704 2107.23 280.865 2094.46 280.865H2095.88Z" fill="#0054D1"/>
<path d="M2537.34 625.801C2486.24 625.801 2449.33 613.026 2425.2 588.894C2401.07 564.763 2388.29 532.115 2388.29 492.369C2388.29 452.623 2402.49 417.136 2432.3 394.424C2460.69 371.712 2499.01 360.356 2545.86 360.356H2626.77C2626.77 339.064 2619.67 323.449 2608.31 310.674C2596.96 297.898 2581.34 293.64 2560.05 293.64C2538.76 293.64 2520.31 296.479 2497.59 302.157C2474.88 307.835 2456.43 313.513 2440.81 322.03L2411 229.763C2426.62 218.407 2450.75 209.89 2483.4 202.792C2516.05 195.695 2541.6 191.437 2558.63 191.437C2608.31 191.437 2650.9 205.631 2684.97 234.021C2720.45 262.411 2737.49 299.318 2737.49 343.322V614.445H2680.71L2653.74 578.958C2638.12 590.314 2621.09 601.67 2599.8 610.187C2578.51 618.704 2558.63 624.382 2537.34 624.382V625.801ZM2483.4 492.369C2483.4 503.725 2487.66 515.081 2497.59 523.598C2507.53 532.115 2520.31 537.793 2535.92 537.793C2551.53 537.793 2567.15 534.954 2582.76 527.856C2598.38 520.759 2613.99 510.822 2628.19 496.627V434.17H2544.44C2524.56 434.17 2510.37 439.848 2499.01 452.623C2487.66 465.399 2483.4 478.174 2483.4 492.369Z" fill="#0054D1"/>
<path d="M3095.2 607.346C3086.69 614.443 3072.49 621.541 3056.88 625.799C3041.26 630.058 3025.65 632.897 3012.87 632.897C2961.77 632.897 2922.03 620.121 2892.22 594.57C2862.41 569.02 2848.21 532.113 2848.21 483.85V289.38H2792.85V204.21H2848.21V106.265L2957.51 86.3921V204.21H3032.75L3066.81 289.38H2957.51V465.397C2957.51 486.689 2963.19 505.142 2973.13 519.337C2983.06 533.532 2998.68 540.63 3018.55 540.63C3038.42 540.63 3032.75 540.63 3041.26 537.791C3049.78 534.952 3056.88 533.532 3063.97 529.274L3096.62 608.765L3095.2 607.346Z" fill="#0054D1"/>
<path d="M3211.62 19.6768C3228.66 19.6768 3244.27 25.3547 3255.63 38.1302C3266.98 50.9056 3274.08 65.1005 3274.08 82.1344C3274.08 99.1683 3268.4 114.783 3255.63 126.139C3242.85 137.495 3228.66 144.592 3211.62 144.592C3194.59 144.592 3180.39 138.914 3167.62 126.139C3154.84 113.363 3149.16 99.1683 3149.16 82.1344C3149.16 65.1005 3154.84 49.4861 3167.62 38.1302C3180.39 26.7742 3194.59 19.6768 3211.62 19.6768ZM3266.98 202.791V615.864H3156.26V202.791H3266.98Z" fill="#0054D1"/>
<path d="M3326.6 615.862L3482.75 405.777L3340.8 218.404L3454.36 202.79L3553.72 336.222L3657.34 202.79H3778L3619.02 422.811L3765.22 615.862H3643.15L3548.04 492.366L3450.1 615.862H3328.02H3326.6Z" fill="#0054D1"/>
<rect x="61" y="61" width="584" height="584" fill="white"/>
<path d="M594 0C655.856 0 706 50.1441 706 112V594C706 655.856 655.856 706 594 706H112C50.1441 706 0 655.856 0 594V112C0 50.1441 50.1441 0 112 0H594ZM503.6 151.346C453.805 101.551 373 101.552 323.206 151.346L177.898 296.653C108.701 365.851 108.701 478.021 177.898 547.219C247.097 616.417 359.267 616.417 428.465 547.219L563.693 412.168C574.769 401.093 574.769 383.106 563.693 372.031C552.618 360.956 534.632 360.956 523.557 372.031L388.328 507.171C341.28 554.219 264.994 554.219 217.946 507.171C170.899 460.123 170.899 383.838 217.946 336.79L363.254 191.482C390.898 163.839 435.819 163.839 463.463 191.482C491.107 219.126 491.107 264.048 463.463 291.691L318.155 436.998C309.915 445.327 296.448 445.238 288.119 436.998C279.791 428.758 279.791 415.29 288.119 406.962L423.503 271.667C434.578 260.592 434.578 242.606 423.503 231.53C412.428 220.455 394.441 220.455 383.366 231.53L247.982 366.737C217.504 397.216 217.503 446.568 247.982 477.047C278.461 507.526 327.813 507.526 358.292 477.047L503.6 331.739C553.394 281.945 553.394 201.14 503.6 151.346Z" fill="#0054D1"/>
</svg>
