<svg width="706" height="706" viewBox="0 0 706 706" fill="none" xmlns="http://www.w3.org/2000/svg">
<rect x="61" y="61" width="584" height="584" fill="white"/>
<path d="M594 0C655.856 0 706 50.1441 706 112V594C706 655.856 655.856 706 594 706H112C50.1441 706 0 655.856 0 594V112C0 50.1441 50.1441 0 112 0H594ZM503.6 151.346C453.805 101.551 373 101.552 323.206 151.346L177.898 296.653C108.701 365.851 108.701 478.021 177.898 547.219C247.097 616.417 359.267 616.417 428.465 547.219L563.693 412.168C574.769 401.093 574.769 383.106 563.693 372.031C552.618 360.956 534.632 360.956 523.557 372.031L388.328 507.171C341.28 554.219 264.994 554.219 217.946 507.171C170.899 460.123 170.899 383.838 217.946 336.79L363.254 191.482C390.898 163.839 435.819 163.839 463.463 191.482C491.107 219.126 491.107 264.048 463.463 291.691L318.155 436.998C309.915 445.327 296.448 445.238 288.119 436.998C279.791 428.758 279.791 415.29 288.119 406.962L423.503 271.667C434.578 260.592 434.578 242.606 423.503 231.53C412.428 220.455 394.441 220.455 383.366 231.53L247.982 366.737C217.504 397.216 217.503 446.568 247.982 477.047C278.461 507.526 327.813 507.526 358.292 477.047L503.6 331.739C553.394 281.945 553.394 201.14 503.6 151.346Z" fill="#0054D1"/>
</svg>
