<svg xmlns="http://www.w3.org/2000/svg" viewBox="0 0 4000 2400"><defs><style>.cls-1,.cls-10,.cls-12,.cls-2,.cls-3,.cls-4,.cls-5,.cls-6,.cls-7,.cls-8,.cls-9{fill:none;stroke:#0074ff;stroke-linecap:round;stroke-linejoin:round;}.cls-1,.cls-2,.cls-5,.cls-6{stroke-width:2px;}.cls-2{stroke-dasharray:12 12;}.cls-10,.cls-3,.cls-4,.cls-7{stroke-width:4px;}.cls-4{stroke-dasharray:11.7 11.7;}.cls-5{stroke-dasharray:12.05 12.05;}.cls-6{stroke-dasharray:11.5 11.5;}.cls-7{stroke-dasharray:11.4 11.4;}.cls-8{stroke-width:10px;}.cls-9{stroke-width:5px;}.cls-10{stroke-dasharray:12.19 12.19;}.cls-11{fill:#0074ff;}.cls-12{stroke-width:1.43px;}</style></defs><title>lines-and-stuff</title><g id="Í_ã_13" data-name="Í¼²ã_13"><line class="cls-1" x1="3441.85" y1="556.47" x2="3436.66" y2="559.47"/><line class="cls-2" x1="3426.26" y1="565.47" x2="3202.8" y2="694.51"/><polyline class="cls-1" points="3197.6 697.51 3192.4 700.51 3192.4 706.51"/><line class="cls-2" x1="3192.4" y1="718.51" x2="3192.42" y2="976.56"/><line class="cls-1" x1="3192.42" y1="982.56" x2="3192.42" y2="988.56"/><polyline class="cls-3" points="4106.41 -189.42 3602.67 107.13 3602.69 348.04 3811.33 468.49 4221.36 228.74"/><polyline class="cls-3" points="3774.71 207.23 3774.7 -4.12 3591.66 -109.78 3408.63 -4.1 3408.64 207.25"/><polyline class="cls-3" points="2919.14 726.87 2919.12 487.8 2712.07 368.27"/><polyline class="cls-3" points="2522.61 121.02 2522.61 127.02 2527.81 130.02"/><line class="cls-4" x1="2537.94" y1="135.87" x2="2776.05" y2="273.33"/><polyline class="cls-3" points="2781.12 276.25 2786.31 279.25 2791.51 276.25"/><line class="cls-4" x1="2801.64" y1="270.4" x2="3039.74" y2="132.92"/><polyline class="cls-3" points="3044.8 130 3050 127 3050 121"/><line class="cls-4" x1="3050" y1="109.3" x2="3049.98" y2="-165.64"/><line class="cls-4" x1="2522.6" y1="-159.76" x2="2522.61" y2="115.17"/><polyline class="cls-1" points="2838.61 342.9 2838.59 112.36 2638.93 -2.9"/><line class="cls-1" x1="3901.19" y1="960.36" x2="3532.19" y2="747.02"/><polyline class="cls-3" points="2814.3 -262.02 2814.32 -41.28 3005.49 69.08 3196.65 -41.31 3196.64 -262.05"/><polygon class="cls-3" points="2922.25 254.32 3078.72 344.65 3235.18 254.31 3235.18 73.64 3078.71 -16.7 2922.24 73.64 2922.25 254.32"/><polygon class="cls-1" points="3020.92 532.6 3299.22 693.26 3577.5 532.57 3577.48 211.23 3299.18 50.58 3020.91 211.26 3020.92 532.6"/><line class="cls-1" x1="159.5" y1="681.31" x2="164.7" y2="678.31"/><line class="cls-2" x1="175.09" y1="672.31" x2="398.56" y2="543.27"/><polyline class="cls-1" points="403.75 540.27 408.95 537.27 408.95 531.27"/><line class="cls-2" x1="408.95" y1="519.27" x2="408.93" y2="261.22"/><line class="cls-1" x1="408.93" y1="255.22" x2="408.93" y2="249.22"/><line class="cls-3" x1="411.03" y1="249.22" x2="588" y2="147.03"/><polyline class="cls-3" points="-23.05 1258.19 159.99 1363.85 343.02 1258.17 343.01 1046.82"/><polyline class="cls-3" points="701.67 1431.56 965.37 1583.79 1229.05 1431.53 1229.04 1127.04 965.34 974.82"/><line class="cls-1" x1="910.04" y1="707.81" x2="910.04" y2="713.81"/><line class="cls-5" x1="910.04" y1="725.87" x2="910.06" y2="1129.68"/><polyline class="cls-1" points="910.06 1135.71 910.06 1141.71 915.25 1144.71"/><line class="cls-6" x1="925.21" y1="1150.46" x2="1099.54" y2="1251.09"/><line class="cls-1" x1="1104.52" y1="1253.97" x2="1109.72" y2="1256.97"/><line class="cls-1" x1="2633.28" y1="2230.28" x2="2264.28" y2="2016.94"/><line class="cls-3" x1="160" y1="1429.26" x2="154.8" y2="1432.26"/><line class="cls-7" x1="144.93" y1="1437.96" x2="-27.79" y2="1537.69"/><line class="cls-7" x1="-22.84" y1="1780.79" x2="149.89" y2="1880.51"/><polyline class="cls-3" points="154.83 1883.35 160.03 1886.35 165.22 1883.35"/><line class="cls-7" x1="175.09" y1="1877.65" x2="347.82" y2="1777.92"/><line class="cls-3" x1="352.75" y1="1775.07" x2="357.95" y2="1772.07"/><polygon class="cls-3" points="204.21 1716.26 85.77 1647.88 -32.67 1716.27 -32.67 1853.04 85.78 1921.42 204.22 1853.03 204.21 1716.26"/><polygon class="cls-3" points="252.98 1941.24 86.23 1844.98 -80.51 1941.26 -80.5 2133.8 86.25 2230.06 252.99 2133.78 252.98 1941.24"/><polygon class="cls-3" points="324.42 2321.23 159.6 2226.08 -5.21 2321.25 -5.2 2511.56 159.62 2606.7 324.43 2511.54 324.42 2321.23"/><polyline class="cls-3" points="380.15 2275.13 585.93 2156.31 585.92 1918.68 380.12 1799.88 174.34 1918.7"/><polygon class="cls-3" points="1018.87 1415.82 599.83 1173.92 180.82 1415.86 180.84 1899.71 599.88 2141.61 1018.89 1899.67 1018.87 1415.82"/><polyline class="cls-3" points="937.35 1516.09 937.34 1295.35 746.16 1184.99 555 1295.37 555.02 1516.11"/><polygon class="cls-1" points="634.3 2311.4 452.49 2206.44 270.68 2311.42 270.7 2521.35 452.51 2626.31 634.31 2521.33 634.3 2311.4"/><polyline class="cls-8" points="1086.29 1857.89 714.83 2072.38 714.84 2501.32"/><polyline class="cls-3" points="672.94 1270.76 829.41 1180.42 829.4 999.75"/><polygon class="cls-9" points="1382.7 1543.64 965.35 1302.71 548.03 1543.68 548.06 2025.57 965.4 2266.5 1382.72 2025.53 1382.7 1543.64"/><line class="cls-1" x1="1194.44" y1="1345.69" x2="1472.74" y2="1506.35"/><line class="cls-1" x1="1906.53" y1="1572.53" x2="1628.23" y2="1411.87"/><polyline class="cls-1" points="452.43 560.81 174.15 721.5 174.17 1042.84 452.47 1203.49 730.75 1042.8"/><polyline class="cls-3" points="1259.7 1285.8 1046.73 1408.77 1046.75 1654.7 1259.73 1777.65 1472.7 1654.67"/><polyline class="cls-3" points="569.97 1874.45 569.97 2077.89 746.15 2179.61 922.33 2077.88 922.33 1874.44"/><polyline class="cls-3" points="1392.4 1855.62 1392.4 1849.62 1387.2 1846.62"/><line class="cls-10" x1="1376.64" y1="1840.52" x2="875.06" y2="1550.96"/><polyline class="cls-3" points="869.78 1547.91 864.58 1544.91 859.39 1547.91"/><line class="cls-10" x1="848.83" y1="1554.01" x2="347.27" y2="1843.61"/><polyline class="cls-3" points="341.99 1846.66 336.8 1849.66 336.8 1855.66"/><line class="cls-10" x1="336.8" y1="1867.85" x2="336.82" y2="2447.02"/><line class="cls-10" x1="1392.42" y1="2440.88" x2="1392.4" y2="1861.72"/><polygon class="cls-3" points="1561.96 2090.23 1231.25 1899.32 900.56 2090.26 900.58 2472.12 1231.29 2663.04 1561.98 2472.09 1561.96 2090.23"/><polyline class="cls-3" points="1625.6 1630.14 1381.46 1771.12 1381.47 2053.03 1625.63 2193.98 1869.78 2053.01"/><polyline class="cls-3" points="1587.24 1764.16 1587.26 1933.9 1844.82 2082.59 2102.36 1933.88 2102.34 1692.29"/><polyline class="cls-1" points="3061.36 1252.33 3493.11 1009.21 3493.1 918.13"/><polygon class="cls-3" points="2126.09 1960.73 1992.17 1883.41 1858.25 1960.74 1858.26 2115.39 1992.18 2192.7 2126.1 2115.37 2126.09 1960.73"/><polygon class="cls-3" points="1809.51 2312.26 1625.63 2206.11 1441.77 2312.28 1441.78 2524.6 1625.66 2630.74 1809.52 2524.58 1809.51 2312.26"/><circle class="cls-11" cx="3192.4" cy="983.99" r="18.19"/><circle class="cls-11" cx="2712.07" cy="368.27" r="13.1"/><circle class="cls-11" cx="3901.19" cy="960.36" r="20.52"/><circle class="cls-11" cx="3441.85" cy="556.47" r="8.7"/><circle class="cls-11" cx="2638.93" cy="-2.9" r="4.52"/><circle class="cls-11" cx="3408.64" cy="207.25" r="9"/><circle class="cls-11" cx="3776.61" cy="205.33" r="9"/><circle class="cls-11" cx="2919.14" cy="726.87" r="6.16"/><circle class="cls-11" cx="2838.61" cy="344.65" r="6.33"/><circle class="cls-11" cx="3532.19" cy="747.02" r="8.56"/><circle class="cls-11" cx="965.36" cy="974.81" r="12.16"/><circle class="cls-11" cx="588" cy="147.71" r="10.39" transform="translate(67.81 459.1) rotate(-45.01)"/><circle class="cls-11" cx="1259.7" cy="1285.79" r="11.94"/><circle class="cls-11" cx="1625.6" cy="1630.14" r="11.02"/><circle class="cls-11" cx="2102.34" cy="1692.29" r="9.76"/><circle class="cls-11" cx="2633.28" cy="2230.28" r="20.52"/><circle class="cls-11" cx="1906.53" cy="1572.53" r="11.55"/><circle class="cls-11" cx="174.34" cy="1918.7" r="10.45"/><circle class="cls-11" cx="699.68" cy="1429.26" r="14.83"/><circle class="cls-11" cx="730.75" cy="1042.8" r="13.03"/><circle class="cls-11" cx="452.45" cy="560.81" r="13.03"/><circle class="cls-11" cx="555.02" cy="1516.11" r="7.2"/><circle class="cls-11" cx="569.97" cy="1874.44" r="7.2"/><circle class="cls-11" cx="937.35" cy="1516.09" r="7.23"/><circle class="cls-11" cx="1106.72" cy="1256.97" r="4.52"/><circle class="cls-11" cx="672.94" cy="1270.76" r="10.93"/><circle class="cls-11" cx="343.01" cy="1046.81" r="9"/><circle class="cls-11" cx="910.04" cy="707.81" r="6.33"/><circle class="cls-11" cx="1472.74" cy="1506.35" r="6.6"/><circle class="cls-11" cx="1587.24" cy="1764.16" r="6.1"/><circle class="cls-11" cx="922.33" cy="1874.45" r="7.71"/><circle class="cls-11" cx="357.95" cy="1772.07" r="14.03"/><circle class="cls-11" cx="160" cy="1429.26" r="14.15"/><circle class="cls-11" cx="2264.28" cy="2016.94" r="8.56"/><circle class="cls-11" cx="1869.78" cy="2053.01" r="6.89"/><circle class="cls-11" cx="3061.36" cy="1252.33" r="8.1"/><circle class="cls-11" cx="1086.29" cy="1857.89" r="12.67"/><circle class="cls-11" cx="829.41" cy="999.75" r="9.95"/><circle class="cls-11" cx="159.8" cy="681.61" r="9.95"/><circle class="cls-11" cx="1259.24" cy="2210.27" r="10.89"/><circle class="cls-11" cx="1194.44" cy="1345.69" r="8.42"/><circle class="cls-11" cx="1628.23" cy="1411.87" r="3.93"/><circle class="cls-11" cx="3493.1" cy="918.13" r="10.22"/><circle class="cls-11" cx="1472.71" cy="1654.67" r="9.3"/><circle class="cls-11" cx="380.15" cy="2275.13" r="12.36"/><circle class="cls-3" cx="3532.19" cy="747.02" r="15.66"/><circle class="cls-3" cx="2838.61" cy="344.65" r="12.78"/><circle class="cls-3" cx="2919.14" cy="726.87" r="13.18"/><circle class="cls-3" cx="3408.64" cy="207.25" r="22.37"/><circle class="cls-3" cx="3776.61" cy="205.33" r="22.37"/><circle class="cls-3" cx="2638.93" cy="-2.9" r="10.7"/><circle class="cls-3" cx="1472.74" cy="1506.35" r="13.48"/><circle class="cls-3" cx="937.35" cy="1516.09" r="15.63"/><circle class="cls-3" cx="922.33" cy="1874.45" r="15.02"/><circle class="cls-3" cx="3061.36" cy="1252.33" r="15.06"/><circle class="cls-3" cx="2264.28" cy="2016.94" r="15.66"/><circle class="cls-3" cx="910.04" cy="707.81" r="12.78"/><circle class="cls-3" cx="357.95" cy="1772.07" r="22.19"/><circle class="cls-3" cx="343.01" cy="1046.81" r="22.37"/><circle class="cls-3" cx="555.02" cy="1516.11" r="11.39"/><circle class="cls-3" cx="1106.72" cy="1256.97" r="10.7"/><circle class="cls-3" cx="1587.24" cy="1764.16" r="11.38"/><circle class="cls-3" cx="672.94" cy="1270.76" r="19.45"/><circle class="cls-3" cx="1259.24" cy="2210.27" r="21.82"/><circle class="cls-3" cx="1628.23" cy="1411.87" r="10.22"/><circle class="cls-3" cx="3493.1" cy="918.13" r="17.72"/><circle class="cls-3" cx="1472.71" cy="1654.67" r="13.51"/><circle class="cls-12" cx="380.15" cy="2275.13" r="17.33"/></g></svg>